# xmcd
#
# Track frame offsets:
#	150
#	9702
#	28497
#	56645
#	82300
#	108400
#	130445
#	153097
#	156450
#	175322
#	182407
#	210295
#	234720
#	254725
#
# Disc length: 4178 seconds
#
# Revision: 5
# Processed by: cddbd v1.5.2PL0 Copyright (c) Steve Scherf et al.
# Submitted via: VUPlayer 2.49
#
DISCID=bf10500e,c710500e
DTITLE=Demon - Midnight Funk
DYEAR=1999
DGENRE=Jazz Funk
TTITLE0=The Heart Is a Lonely Hunter
TTITLE1=Lil' Fuck [Étienne de Crécy and Demon Funkasized Version]
TTITLE2=Midnight Funk
TTITLE3=Now That I Have You
TTITLE4=My City
TTITLE5=Lost Highway
TTITLE6=Blunted People
TTITLE7=Back and Forth
TTITLE8=The JUICE
TTITLE9=L'air blanc
TTITLE10=Back in the Daze
TTITLE11=Streets
TTITLE12=Regulate
TTITLE13=Heartbreaker
EXTD=
EXTT0=
EXTT1=
EXTT2=
EXTT3=
EXTT4=
EXTT5=
EXTT6=
EXTT7=
EXTT8=
EXTT9=
EXTT10=
EXTT11=
EXTT12=
EXTT13=
PLAYORDER=
